#N canvas 0 22 640 367 12;
#X obj 34 30 bng 15 250 50 0 empty empty empty 17 7 0 10 -262144 -1
-1;
#N canvas 13 39 516 332 analogIn 0;
#X obj 8 9 inlet;
#X obj 195 9 inlet;
#X floatatom 195 35 5 0 0 0 - - -;
#X obj 195 60 t f b;
#X msg 195 86 open \$1;
#X msg 259 86 close;
#X obj 195 197 arduino 2;
#X obj 195 223 route analog;
#X obj 195 249 route 0 1 2 3 4 5;
#X obj 195 285 outlet;
#X obj 245 285 outlet;
#X obj 295 285 outlet;
#X obj 345 285 outlet;
#X obj 395 285 outlet;
#X obj 445 285 outlet;
#X msg 8 40 analogIns 0 1;
#X msg 18 64 analogIns 1 1;
#X msg 28 88 analogIns 2 1;
#X msg 38 112 analogIns 3 1;
#X msg 48 136 analogIns 4 1;
#X msg 58 160 analogIns 5 1;
#X connect 0 0 15 0;
#X connect 0 0 16 0;
#X connect 0 0 17 0;
#X connect 0 0 18 0;
#X connect 0 0 19 0;
#X connect 0 0 20 0;
#X connect 1 0 2 0;
#X connect 2 0 3 0;
#X connect 3 0 4 0;
#X connect 3 1 5 0;
#X connect 4 0 6 0;
#X connect 5 0 6 0;
#X connect 6 0 7 0;
#X connect 7 0 8 0;
#X connect 8 0 9 0;
#X connect 8 1 10 0;
#X connect 8 2 11 0;
#X connect 8 3 12 0;
#X connect 8 4 13 0;
#X connect 8 5 14 0;
#X connect 15 0 6 0;
#X connect 16 0 6 0;
#X connect 17 0 6 0;
#X connect 18 0 6 0;
#X connect 19 0 6 0;
#X connect 20 0 6 0;
#X restore 34 55 pd analogIn;
#X floatatom 122 30 5 0 0 0 - - -;
#X floatatom 34 96 5 0 0 0 - - -;
#X floatatom 75 96 5 0 0 0 - - -;
#X floatatom 116 96 5 0 0 0 - - -;
#X floatatom 157 96 5 0 0 0 - - -;
#X floatatom 198 96 5 0 0 0 - - -;
#X floatatom 239 96 5 0 0 0 - - -;
#N canvas 0 22 450 278 (subpatch) 0;
#X array spectrum 100 float 0;
#X coords 0 1 99 -1 100 70 1 0 0;
#X restore 412 629 graph;
#X obj 412 60 r c;
#X obj 412 86 line;
#X floatatom 412 112 5 0 0 0 - - -;
#X obj 412 197 *;
#X obj 412 223 phasor~;
#X obj 412 414 +~;
#X obj 412 440 cos~;
#X obj 412 486 hip~;
#N canvas 192 103 543 634 fft 0;
#X obj 29 71 inlet~;
#X obj 218 222 inlet;
#X obj 39 102 rfft~;
#X obj 39 135 *~;
#X obj 70 135 *~;
#X obj 39 165 sqrt~;
#X obj 342 119 block~ 4096 1;
#X obj 39 191 biquad~ 0 0 0 0 1;
#X text 103 103 Fourier series;
#X text 108 156 magnitude;
#X text 106 141 calculate;
#X text 31 13 This subpatch computes the spectrum of the incoming signal
with a (rectangular windowed) FFT. FFTs aren't properly introduced
until much later.;
#X text 93 71 signal to analyze;
#X text 203 174 delay two samples;
#X text 201 192 for better graphing;
#X obj 29 469 samplerate~;
#X obj 29 446 bng 18 250 50 0 empty empty empty 0 -6 0 8 -262144 -1
-1;
#X floatatom 29 516 5 0 0 0 - - -;
#X obj 29 492 / 256;
#X obj 29 422 loadbang;
#X obj 85 538 s fundamental;
#X text 27 369 At load time \, calculate a good choice of fundamental
frequency for showing spectra: the 16th bin in a 4096-point spectrum
\, so SR*16/4096 or SR/256.;
#X obj 241 269 metro 500;
#X obj 241 246 inlet;
#X text 294 244 toggle to graph repeatedly;
#X text 272 222 bang to graph once;
#X obj 29 305 tabwrite~ E09-signal;
#X obj 29 538 t b f;
#X msg 29 561 \; cm 6;
#X text 35 595 set carrier multiplier after fundamental;
#X obj 39 215 /~ 4096;
#X msg 219 332 \; pd dsp 1;
#X obj 241 308 tabwrite~ spectrum;
#X connect 0 0 2 0;
#X connect 0 0 26 0;
#X connect 1 0 26 0;
#X connect 1 0 31 0;
#X connect 1 0 32 0;
#X connect 2 0 3 0;
#X connect 2 0 3 1;
#X connect 2 1 4 0;
#X connect 2 1 4 1;
#X connect 3 0 5 0;
#X connect 4 0 5 0;
#X connect 5 0 7 0;
#X connect 7 0 30 0;
#X connect 15 0 18 0;
#X connect 16 0 15 0;
#X connect 17 0 27 0;
#X connect 18 0 17 0;
#X connect 19 0 16 0;
#X connect 22 0 26 0;
#X connect 22 0 32 0;
#X connect 23 0 22 0;
#X connect 23 0 31 0;
#X connect 27 0 28 0;
#X connect 27 1 20 0;
#X connect 30 0 32 0;
#X restore 450 486 pd fft;
#X obj 412 547 output~;
#X obj 469 460 bng 15 250 50 0 empty empty empty 17 7 0 10 -262144
-1 -1;
#X obj 489 460 tgl 15 0 empty empty empty 17 7 0 10 -262144 -1 -1 1
1;
#X obj 486 86 line;
#X floatatom 486 112 5 0 0 0 - - -;
#X obj 486 197 *;
#X obj 486 60 r m1;
#X obj 486 223 osc~;
#X obj 486 374 *~;
#X obj 533 213 r i1;
#X obj 533 239 line;
#X floatatom 533 265 5 0 0 0 - - -;
#X obj 533 290 / 100;
#X obj 533 316 pack 0 50;
#X obj 533 342 line~;
#X obj 606 86 line;
#X floatatom 606 112 5 0 0 0 - - -;
#X obj 606 197 *;
#X obj 606 223 osc~;
#X obj 606 374 *~;
#X obj 653 239 line;
#X floatatom 653 265 5 0 0 0 - - -;
#X obj 653 290 / 100;
#X obj 653 316 pack 0 50;
#X obj 653 342 line~;
#X obj 653 213 r i2;
#X obj 606 60 r m2;
#X obj 675 50 r freq;
#X obj 675 76 line;
#X floatatom 675 102 5 0 0 0 - - -;
#X obj 675 127 t b f;
#X msg 566 471 \; freq 110 1000 \; c 1 1000 \; m1 2 1000 \; m2 3 1000
\; i1 100 1000 \; i2 120 1000 \;;
#N canvas 0 22 450 278 (subpatch) 0;
#X array E09-signal 100 float 0;
#X coords 0 1 99 -1 100 70 1 0 0;
#X restore 527 630 graph;
#X obj 34 682 s freq;
#X obj 75 583 s c;
#X obj 116 488 s m1;
#X obj 157 391 s m2;
#X obj 198 287 s i1;
#X obj 239 187 s i2;
#N canvas 852 85 289 192 dataMapping 0;
#X obj 29 27 inlet;
#X obj 29 145 outlet;
#X floatatom 29 54 5 0 0 0 - - -;
#X obj 105 28 inlet;
#X obj 155 28 inlet;
#X floatatom 105 54 5 0 0 0 - - -;
#X floatatom 155 54 5 0 0 0 - - -;
#X obj 29 94 expr (($f3 - $f2) * $f1) + $f2;
#X floatatom 29 120 5 0 0 0 - - -;
#X connect 0 0 2 0;
#X connect 2 0 7 0;
#X connect 3 0 5 0;
#X connect 4 0 6 0;
#X connect 5 0 7 1;
#X connect 6 0 7 2;
#X connect 7 0 8 0;
#X connect 8 0 1 0;
#X restore 34 656 pd dataMapping;
#X floatatom 81 631 5 0 0 2 min - -;
#X floatatom 129 631 5 0 0 2 max - -;
#N canvas 936 135 289 192 dataMapping 0;
#X obj 29 27 inlet;
#X obj 29 145 outlet;
#X floatatom 29 54 5 0 0 0 - - -;
#X obj 105 28 inlet;
#X obj 155 28 inlet;
#X floatatom 105 54 5 0 0 0 - - -;
#X floatatom 155 54 5 0 0 0 - - -;
#X obj 29 94 expr (($f3 - $f2) * $f1) + $f2;
#X floatatom 29 120 5 0 0 0 - - -;
#X connect 0 0 2 0;
#X connect 2 0 7 0;
#X connect 3 0 5 0;
#X connect 4 0 6 0;
#X connect 5 0 7 1;
#X connect 6 0 7 2;
#X connect 7 0 8 0;
#X connect 8 0 1 0;
#X restore 75 557 pd dataMapping;
#X floatatom 122 532 5 0 0 2 min - -;
#X floatatom 170 532 5 0 0 2 max - -;
#N canvas 959 94 289 192 dataMapping 0;
#X obj 29 27 inlet;
#X obj 29 145 outlet;
#X floatatom 29 54 5 0 0 0 - - -;
#X obj 105 28 inlet;
#X obj 155 28 inlet;
#X floatatom 105 54 5 0 0 0 - - -;
#X floatatom 155 54 5 0 0 0 - - -;
#X obj 29 94 expr (($f3 - $f2) * $f1) + $f2;
#X floatatom 29 120 5 0 0 0 - - -;
#X connect 0 0 2 0;
#X connect 2 0 7 0;
#X connect 3 0 5 0;
#X connect 4 0 6 0;
#X connect 5 0 7 1;
#X connect 6 0 7 2;
#X connect 7 0 8 0;
#X connect 8 0 1 0;
#X restore 116 462 pd dataMapping;
#X floatatom 163 437 5 0 0 2 min - -;
#X floatatom 211 437 5 0 0 2 max - -;
#N canvas 894 100 289 192 dataMapping 0;
#X obj 29 27 inlet;
#X obj 29 145 outlet;
#X floatatom 29 54 5 0 0 0 - - -;
#X obj 105 28 inlet;
#X obj 155 28 inlet;
#X floatatom 105 54 5 0 0 0 - - -;
#X floatatom 155 54 5 0 0 0 - - -;
#X obj 29 94 expr (($f3 - $f2) * $f1) + $f2;
#X floatatom 29 120 5 0 0 0 - - -;
#X connect 0 0 2 0;
#X connect 2 0 7 0;
#X connect 3 0 5 0;
#X connect 4 0 6 0;
#X connect 5 0 7 1;
#X connect 6 0 7 2;
#X connect 7 0 8 0;
#X connect 8 0 1 0;
#X restore 157 365 pd dataMapping;
#X floatatom 204 340 5 0 0 2 min - -;
#X floatatom 252 340 5 0 0 2 max - -;
#N canvas 900 315 289 192 dataMapping 0;
#X obj 29 27 inlet;
#X obj 29 145 outlet;
#X floatatom 29 54 5 0 0 0 - - -;
#X obj 105 28 inlet;
#X obj 155 28 inlet;
#X floatatom 105 54 5 0 0 0 - - -;
#X floatatom 155 54 5 0 0 0 - - -;
#X obj 29 94 expr (($f3 - $f2) * $f1) + $f2;
#X floatatom 29 120 5 0 0 0 - - -;
#X connect 0 0 2 0;
#X connect 2 0 7 0;
#X connect 3 0 5 0;
#X connect 4 0 6 0;
#X connect 5 0 7 1;
#X connect 6 0 7 2;
#X connect 7 0 8 0;
#X connect 8 0 1 0;
#X restore 198 261 pd dataMapping;
#X floatatom 245 236 5 0 0 2 min - -;
#X floatatom 293 236 5 0 0 2 max - -;
#N canvas 895 479 289 192 dataMapping 0;
#X obj 29 27 inlet;
#X obj 29 145 outlet;
#X floatatom 29 54 5 0 0 0 - - -;
#X obj 105 28 inlet;
#X obj 155 28 inlet;
#X floatatom 105 54 5 0 0 0 - - -;
#X floatatom 155 54 5 0 0 0 - - -;
#X obj 29 94 expr (($f3 - $f2) * $f1) + $f2;
#X floatatom 29 120 5 0 0 0 - - -;
#X connect 0 0 2 0;
#X connect 2 0 7 0;
#X connect 3 0 5 0;
#X connect 4 0 6 0;
#X connect 5 0 7 1;
#X connect 6 0 7 2;
#X connect 7 0 8 0;
#X connect 8 0 1 0;
#X restore 239 161 pd dataMapping;
#X floatatom 286 136 5 0 0 2 min - -;
#X floatatom 334 136 5 0 0 2 max - -;
#X connect 0 0 1 0;
#X connect 1 0 3 0;
#X connect 1 1 4 0;
#X connect 1 2 5 0;
#X connect 1 3 6 0;
#X connect 1 4 7 0;
#X connect 1 5 8 0;
#X connect 2 0 1 1;
#X connect 3 0 58 0;
#X connect 4 0 61 0;
#X connect 5 0 64 0;
#X connect 6 0 67 0;
#X connect 7 0 70 0;
#X connect 8 0 73 0;
#X connect 10 0 11 0;
#X connect 11 0 12 0;
#X connect 12 0 13 0;
#X connect 13 0 14 0;
#X connect 14 0 15 0;
#X connect 15 0 16 0;
#X connect 16 0 17 0;
#X connect 16 0 18 0;
#X connect 17 0 19 0;
#X connect 17 0 19 1;
#X connect 20 0 18 1;
#X connect 21 0 18 2;
#X connect 22 0 23 0;
#X connect 23 0 24 0;
#X connect 24 0 26 0;
#X connect 25 0 22 0;
#X connect 26 0 27 0;
#X connect 27 0 15 1;
#X connect 28 0 29 0;
#X connect 29 0 30 0;
#X connect 30 0 31 0;
#X connect 31 0 32 0;
#X connect 32 0 33 0;
#X connect 33 0 27 1;
#X connect 34 0 35 0;
#X connect 35 0 36 0;
#X connect 36 0 37 0;
#X connect 37 0 38 0;
#X connect 38 0 15 1;
#X connect 39 0 40 0;
#X connect 40 0 41 0;
#X connect 41 0 42 0;
#X connect 42 0 43 0;
#X connect 43 0 38 1;
#X connect 44 0 39 0;
#X connect 45 0 34 0;
#X connect 46 0 47 0;
#X connect 47 0 48 0;
#X connect 48 0 49 0;
#X connect 49 0 13 0;
#X connect 49 0 24 0;
#X connect 49 0 36 0;
#X connect 49 1 13 1;
#X connect 49 1 24 1;
#X connect 49 1 36 1;
#X connect 58 0 52 0;
#X connect 59 0 58 1;
#X connect 60 0 58 2;
#X connect 61 0 53 0;
#X connect 62 0 61 1;
#X connect 63 0 61 2;
#X connect 64 0 54 0;
#X connect 65 0 64 1;
#X connect 66 0 64 2;
#X connect 67 0 55 0;
#X connect 68 0 67 1;
#X connect 69 0 67 2;
#X connect 70 0 56 0;
#X connect 71 0 70 1;
#X connect 72 0 70 2;
#X connect 73 0 57 0;
#X connect 74 0 73 1;
#X connect 75 0 73 2;
