#N canvas 0 22 662 557 10;
#N canvas 663 22 582 522 input 1;
#X obj 18 19 inlet;
#X obj 205 19 inlet;
#X floatatom 205 45 5 0 0 0 - - -;
#X obj 205 70 t f b;
#X msg 205 96 open \$1;
#X msg 269 96 close;
#X obj 205 207 arduino 2;
#X obj 205 233 route analog;
#X obj 205 259 route 0 1 2 3 4 5;
#X obj 205 355 outlet;
#X obj 255 355 outlet;
#X obj 305 355 outlet;
#X obj 355 355 outlet;
#X obj 405 355 outlet;
#X obj 455 355 outlet;
#X msg 18 50 analogIns 0 1;
#X msg 28 74 analogIns 1 1;
#X msg 38 98 analogIns 2 1;
#X msg 48 122 analogIns 3 1;
#X msg 58 146 analogIns 4 1;
#X msg 68 170 analogIns 5 1;
#X floatatom 205 328 5 0 0 0 - - -;
#X floatatom 255 328 5 0 0 0 - - -;
#X floatatom 305 328 5 0 0 0 - - -;
#X floatatom 355 328 5 0 0 0 - - -;
#X floatatom 405 328 5 0 0 0 - - -;
#X floatatom 455 328 5 0 0 0 - - -;
#X connect 0 0 15 0;
#X connect 0 0 16 0;
#X connect 0 0 17 0;
#X connect 0 0 18 0;
#X connect 0 0 19 0;
#X connect 0 0 20 0;
#X connect 1 0 2 0;
#X connect 2 0 3 0;
#X connect 3 0 4 0;
#X connect 3 1 5 0;
#X connect 4 0 6 0;
#X connect 5 0 6 0;
#X connect 6 0 7 0;
#X connect 7 0 8 0;
#X connect 8 0 21 0;
#X connect 8 1 22 0;
#X connect 8 2 23 0;
#X connect 8 3 24 0;
#X connect 8 4 25 0;
#X connect 8 5 26 0;
#X connect 15 0 6 0;
#X connect 16 0 6 0;
#X connect 17 0 6 0;
#X connect 18 0 6 0;
#X connect 19 0 6 0;
#X connect 20 0 6 0;
#X connect 21 0 9 0;
#X connect 22 0 10 0;
#X connect 23 0 11 0;
#X connect 24 0 12 0;
#X connect 25 0 13 0;
#X connect 26 0 14 0;
#X restore 128 120 pd input;
#X obj 128 94 bng 15 250 50 0 empty empty empty 17 7 0 10 -262144 -1
-1;
#X floatatom 173 93 5 0 0 0 - - -;
#X obj 128 148 tgl 15 0 empty empty empty 17 7 0 10 -262144 -1 -1 0
1;
#X obj 154 148 tgl 15 0 empty empty empty 17 7 0 10 -262144 -1 -1 0.0156403
0.0156403;
#X obj 180 148 tgl 15 0 empty empty empty 17 7 0 10 -262144 -1 -1 0.030303
0.030303;
#X obj 206 148 tgl 15 0 empty empty empty 17 7 0 10 -262144 -1 -1 0.0449658
0.0449658;
#X obj 232 148 tgl 15 0 empty empty empty 17 7 0 10 -262144 -1 -1 0.0518084
0.0518084;
#X obj 70 402 +~;
#X obj 70 458 output~;
#X obj 70 430 *~ 0.3;
#X obj 70 294 osc~ 440;
#X obj 163 294 osc~ 415.3;
#X obj 258 294 osc~ 349.2;
#X obj 353 294 osc~ 329.6;
#X obj 448 294 osc~ 311.1;
#X obj 128 296 tgl 15 0 empty empty empty 17 7 0 10 -262144 -1 -1 1
1;
#X obj 233 296 tgl 15 0 empty empty empty 17 7 0 10 -262144 -1 -1 0.0156403
0.0156403;
#X obj 328 296 tgl 15 0 empty empty empty 17 7 0 10 -262144 -1 -1 0.030303
0.030303;
#X obj 423 296 tgl 15 0 empty empty empty 17 7 0 10 -262144 -1 -1 0.0449658
0.0449658;
#X obj 518 296 tgl 15 0 empty empty empty 17 7 0 10 -262144 -1 -1 0.0518084
0.0518084;
#X obj 70 332 *~;
#X obj 163 332 *~;
#X obj 258 332 *~;
#X obj 353 332 *~;
#X obj 448 332 *~;
#X floatatom 103 333 5 0 0 0 - - -;
#X floatatom 206 332 5 0 0 0 - - -;
#X floatatom 301 332 5 0 0 0 - - -;
#X floatatom 396 332 5 0 0 0 - - -;
#X floatatom 491 332 5 0 0 0 - - -;
#X connect 0 0 3 0;
#X connect 0 1 4 0;
#X connect 0 2 5 0;
#X connect 0 3 6 0;
#X connect 0 4 7 0;
#X connect 1 0 0 0;
#X connect 2 0 0 1;
#X connect 3 0 16 0;
#X connect 4 0 17 0;
#X connect 5 0 18 0;
#X connect 6 0 19 0;
#X connect 7 0 20 0;
#X connect 8 0 10 0;
#X connect 10 0 9 0;
#X connect 10 0 9 1;
#X connect 11 0 21 0;
#X connect 12 0 22 0;
#X connect 13 0 23 0;
#X connect 14 0 24 0;
#X connect 15 0 25 0;
#X connect 16 0 21 1;
#X connect 16 0 26 0;
#X connect 17 0 22 1;
#X connect 17 0 27 0;
#X connect 18 0 23 1;
#X connect 18 0 28 0;
#X connect 19 0 24 1;
#X connect 19 0 29 0;
#X connect 20 0 25 1;
#X connect 20 0 30 0;
#X connect 21 0 8 0;
#X connect 22 0 8 0;
#X connect 23 0 8 0;
#X connect 24 0 8 0;
#X connect 25 0 8 1;
