#N canvas 0 22 640 367 12;
#X obj 26 41 bng 15 250 50 0 empty empty empty 17 7 0 10 -262144 -1
-1;
#X floatatom 101 41 5 0 0 0 - - -;
#X floatatom 26 133 5 0 0 3 pin0 - -;
#X floatatom 68 133 5 0 0 3 pin1 - -;
#X floatatom 111 133 5 0 0 3 pin2 - -;
#X floatatom 154 133 5 0 0 3 pin3 - -;
#X floatatom 197 133 5 0 0 3 pin4 - -;
#X floatatom 240 133 5 0 0 3 pin5 - -;
#N canvas 643 247 560 496 analogIn 1;
#X obj 31 25 inlet;
#X obj 242 25 inlet;
#X floatatom 242 68 5 0 0 0 - - -;
#X obj 242 97 t f b;
#X msg 242 127 open \$1;
#X msg 308 127 close;
#X obj 242 305 arduino 2;
#X obj 242 349 route analog;
#X obj 242 388 route 0 1 2 3 4 5;
#X obj 242 435 outlet;
#X obj 293 435 outlet;
#X obj 344 435 outlet;
#X obj 395 435 outlet;
#X obj 446 435 outlet;
#X obj 498 435 outlet;
#X msg 101 68 pinMode 14 analog;
#X msg 101 104 pinMode 15 analog;
#X msg 101 140 pinMode 16 analog;
#X msg 101 176 pinMode 17 analog;
#X msg 101 212 pinMode 18 analog;
#X msg 101 248 pinMode 19 analog;
#X connect 0 0 15 0;
#X connect 0 0 16 0;
#X connect 0 0 17 0;
#X connect 0 0 18 0;
#X connect 0 0 19 0;
#X connect 0 0 20 0;
#X connect 1 0 2 0;
#X connect 2 0 3 0;
#X connect 3 0 4 0;
#X connect 3 1 5 0;
#X connect 4 0 6 0;
#X connect 5 0 6 0;
#X connect 6 0 7 0;
#X connect 7 0 8 0;
#X connect 8 0 9 0;
#X connect 8 1 10 0;
#X connect 8 2 11 0;
#X connect 8 3 12 0;
#X connect 8 4 13 0;
#X connect 8 5 14 0;
#X connect 15 0 6 0;
#X connect 16 0 6 0;
#X connect 17 0 6 0;
#X connect 18 0 6 0;
#X connect 19 0 6 0;
#X connect 20 0 6 0;
#X restore 26 77 pd analogIn;
#X connect 0 0 8 0;
#X connect 1 0 8 1;
#X connect 8 0 2 0;
#X connect 8 1 3 0;
#X connect 8 2 4 0;
#X connect 8 3 5 0;
#X connect 8 4 6 0;
#X connect 8 5 7 0;
