#N canvas 0 22 640 367 10;
#X obj 401 227 loadbang;
#X msg 401 255 read -resize hihat.wav hihat;
#X obj 401 283 soundfiler;
#N canvas 0 22 450 278 (subpatch) 0;
#X array hihat 6549 float 2;
#X coords 0 1 6549 -1 200 140 1;
#X restore 401 66 graph;
#X obj 15 65 bng 15 250 50 0 empty empty empty 17 7 0 10 -262144 -1
-1;
#X obj 15 92 tabplay~ hihat;
#X obj 86 294 dac~;
#X obj 90 140 +~;
#X obj 157 67 adc~;
#X obj 157 95 *~;
#X obj 215 80 tgl 15 0 empty empty audio_in 17 7 0 10 -262144 -1 -1
0 1;
#X obj 142 197 delwrite~ delay1 1000;
#X floatatom 249 125 5 0 0 1 feedback - -;
#X obj 142 169 +~;
#X obj 262 255 delread~ delay1 500;
#X obj 142 255 delread~ delay1 250;
#X obj 216 152 *~ 0.7;
#X connect 0 0 1 0;
#X connect 1 0 2 0;
#X connect 4 0 5 0;
#X connect 5 0 7 0;
#X connect 7 0 6 0;
#X connect 7 0 6 1;
#X connect 7 0 13 0;
#X connect 8 0 9 0;
#X connect 9 0 7 1;
#X connect 10 0 9 1;
#X connect 12 0 16 1;
#X connect 13 0 11 0;
#X connect 14 0 6 1;
#X connect 14 0 16 0;
#X connect 15 0 6 0;
#X connect 16 0 13 1;
