#N canvas 0 22 640 367 10;
#X obj 67 53 bng 15 250 50 0 empty empty empty 17 7 0 10 -262144 -1
-1;
#X obj 67 79 tabplay~ riff;
#X obj 67 137 +~;
#X obj 67 311 dac~;
#X obj 167 41 adc~;
#X obj 167 79 *~;
#X obj 214 64 tgl 15 0 empty empty empty 17 7 0 10 -262144 -1 -1 0
1;
#X obj 321 215 loadbang;
#X msg 321 243 read -resize riff.wav riff;
#X obj 321 271 soundfiler;
#N canvas 0 22 450 278 (subpatch) 0;
#X array riff 110471 float 2;
#X coords 0 1 110471 -1 200 140 1;
#X restore 321 54 graph;
#X obj 67 185 hip~;
#X obj 67 233 lop~;
#X obj 67 281 bp~;
#X floatatom 127 157 5 0 0 1 HighPass_cutoff - -;
#X floatatom 127 207 5 0 0 1 LowPass_cutoff - -;
#X floatatom 127 254 5 0 0 1 BandPass_Q - -;
#X floatatom 127 232 5 0 0 1 BandPass_center_freq - -;
#X connect 0 0 1 0;
#X connect 1 0 2 0;
#X connect 1 1 0 0;
#X connect 2 0 11 0;
#X connect 4 0 5 0;
#X connect 5 0 2 1;
#X connect 6 0 5 1;
#X connect 7 0 8 0;
#X connect 8 0 9 0;
#X connect 11 0 12 0;
#X connect 12 0 13 0;
#X connect 13 0 3 0;
#X connect 13 0 3 1;
#X connect 14 0 11 1;
#X connect 15 0 12 1;
#X connect 16 0 13 2;
#X connect 17 0 13 1;
