#N canvas 307 114 626 621 10;
#X obj 42 142 osc~ 440;
#X obj 42 170 +~;
#X obj 42 198 +~;
#X obj 121 181 *~ 0.9;
#X floatatom 182 181 5 0 0 0 - - -;
#X obj 42 266 delwrite~ flanger 100;
#X floatatom 255 16 5 0 0 0 - - -;
#X obj 255 43 osc~ 0.1;
#X obj 255 71 *~ 2;
#X floatatom 331 55 5 0 0 0 - - -;
#X obj 255 99 +~ 10;
#X obj 255 127 vd~ flanger;
#X obj 240 251 +~;
#X obj 240 279 *~ 0.3;
#X obj 240 327 dac~;
#X floatatom 87 115 5 0 0 0 - - -;
#X connect 0 0 1 0;
#X connect 1 0 2 0;
#X connect 2 0 5 0;
#X connect 2 0 12 0;
#X connect 3 0 2 1;
#X connect 4 0 3 1;
#X connect 6 0 7 0;
#X connect 7 0 8 0;
#X connect 8 0 10 0;
#X connect 9 0 8 1;
#X connect 10 0 11 0;
#X connect 11 0 3 0;
#X connect 11 0 12 1;
#X connect 12 0 13 0;
#X connect 13 0 14 0;
#X connect 13 0 14 1;
#X connect 15 0 0 1;
