#N canvas 0 22 485 749 10;
#X floatatom 50 82 5 0 0 0 - - -;
#X floatatom 150 82 5 0 0 0 - - -;
#X floatatom 249 82 5 0 0 0 - - -;
#X floatatom 370 82 5 0 0 0 - - -;
#X obj 50 121 *;
#X obj 249 121 *;
#X obj 150 121 *;
#X obj 50 173 phasor~;
#X obj 150 173 osc~;
#X obj 249 173 osc~;
#X obj 50 426 +~;
#X obj 50 494 cos~;
#X obj 50 546 hip~;
#X obj 50 601 output~;
#X obj 150 354 *~;
#X floatatom 165 236 5 0 0 0 - - -;
#X obj 165 265 / 100;
#X obj 165 295 pack 0 50;
#X obj 165 325 line~;
#X obj 249 354 *~;
#X floatatom 264 236 5 0 0 0 - - -;
#X obj 264 265 / 100;
#X obj 264 295 pack 0 50;
#X obj 264 325 line~;
#N canvas 26 59 467 676 fft 0;
#X obj 22 35 inlet;
#X obj 47 69 rfft~;
#X obj 47 102 *~;
#X obj 84 102 *~;
#X obj 47 137 sqrt~;
#X obj 47 167 biquad~ 0 0 0 0 1;
#X obj 47 198 /~ 4096;
#X obj 22 353 tabwrite~ E09-signal;
#X obj 269 208 inlet;
#X obj 306 240 inlet;
#X obj 309 277 metro 500;
#X obj 309 320 tabwrite~ spectrum;
#X msg 269 366 \; pd dsp 1;
#X obj 21 411 loadbang;
#X obj 21 438 bng 15 250 50 0 empty empty empty 17 7 0 10 -262144 -1
-1;
#X obj 21 464 samplerate~;
#X obj 21 491 / 256;
#X floatatom 21 520 5 0 0 0 - - -;
#X obj 21 547 t b f;
#X obj 71 577 s fundamental;
#X msg 21 576 \; cm 6;
#X obj 271 143 block~ 4096 1;
#X connect 0 0 1 0;
#X connect 0 0 7 0;
#X connect 1 0 2 0;
#X connect 1 0 2 1;
#X connect 1 1 3 0;
#X connect 1 1 3 1;
#X connect 2 0 4 0;
#X connect 3 0 4 0;
#X connect 4 0 5 0;
#X connect 5 0 6 0;
#X connect 8 0 12 0;
#X connect 8 0 11 0;
#X connect 9 0 12 0;
#X connect 10 0 11 0;
#X connect 10 0 7 0;
#X connect 13 0 14 0;
#X connect 14 0 15 0;
#X connect 15 0 16 0;
#X connect 16 0 17 0;
#X connect 17 0 18 0;
#X connect 18 0 20 0;
#X connect 18 1 19 0;
#X restore 103 546 pd fft;
#X obj 119 509 bng 15 250 50 0 empty empty empty 17 7 0 10 -262144
-1 -1;
#X obj 136 509 tgl 15 0 empty empty empty 17 7 0 10 -262144 -1 -1 0
1;
#X connect 0 0 4 0;
#X connect 1 0 6 0;
#X connect 2 0 5 0;
#X connect 3 0 4 1;
#X connect 3 0 6 1;
#X connect 3 0 5 1;
#X connect 4 0 7 0;
#X connect 5 0 9 0;
#X connect 6 0 8 0;
#X connect 7 0 10 0;
#X connect 8 0 14 0;
#X connect 9 0 19 0;
#X connect 10 0 11 0;
#X connect 11 0 12 0;
#X connect 12 0 13 0;
#X connect 12 0 13 1;
#X connect 14 0 10 1;
#X connect 15 0 16 0;
#X connect 16 0 17 0;
#X connect 17 0 18 0;
#X connect 18 0 14 1;
#X connect 19 0 10 1;
#X connect 20 0 21 0;
#X connect 21 0 22 0;
#X connect 22 0 23 0;
#X connect 23 0 19 1;
#X connect 25 0 24 1;
#X connect 26 0 24 2;
