#N canvas 143 37 960 683 10;
#X obj 617 141 loadbang;
#N canvas 0 22 450 278 (subpatch) 0;
#X array melody 245832 float 4;
#X coords 0 1 245831 -1 200 140 1;
#X restore 617 -20 graph;
#X obj 617 197 soundfiler;
#X msg 617 169 read -resize melody.wav melody;
#X obj 56 172 bng 15 250 50 0 empty empty empty 17 7 0 10 -262144 -1
-1;
#X obj 56 198 tabplay~ melody;
#X obj 56 226 +~;
#X obj 239 394 +~;
#X obj 239 422 dac~;
#X obj 56 394 delwrite~ harmonizer 50;
#X floatatom 311 92 5 0 0 1 pitch - -;
#X obj 311 119 phasor~ -5;
#X obj 311 276 *~ 50;
#X obj 311 304 vd~ harmonizer;
#X obj 260 220 +~ 0.5;
#X obj 260 248 cos~;
#X obj 260 276 *~ 0.5;
#X obj 260 304 +~ 0.5;
#X obj 296 349 *~;
#X obj 471 276 *~ 50;
#X obj 471 304 vd~ harmonizer;
#X obj 420 220 +~ 0.5;
#X obj 420 248 cos~;
#X obj 420 276 *~ 0.5;
#X obj 420 304 +~ 0.5;
#X obj 456 349 *~;
#X obj 471 188 wrap~;
#X obj 471 160 +~ 0.5;
#X obj 374 377 +~;
#X obj 166 155 osc~ 440;
#X obj 166 209 *~;
#X obj 181 183 tgl 15 0 empty empty empty 17 7 0 10 -262144 -1 -1 0
1;
#X floatatom 211 128 5 0 0 0 - - -;
#X floatatom 311 -45 5 0 0 0 interval - -;
#X obj 311 -18 expr pow(2 \, $f1/12);
#X floatatom 311 10 5 0 0 0 - - -;
#X obj 311 37 expr ($f1 - 1.0) * -20;
#X floatatom 311 65 5 0 0 0 - - -;
#X connect 0 0 3 0;
#X connect 3 0 2 0;
#X connect 4 0 5 0;
#X connect 5 0 6 0;
#X connect 6 0 9 0;
#X connect 6 0 7 0;
#X connect 7 0 8 0;
#X connect 7 0 8 1;
#X connect 10 0 11 0;
#X connect 11 0 14 0;
#X connect 11 0 12 0;
#X connect 11 0 27 0;
#X connect 12 0 13 0;
#X connect 13 0 18 1;
#X connect 14 0 15 0;
#X connect 15 0 16 0;
#X connect 16 0 17 0;
#X connect 17 0 18 0;
#X connect 18 0 28 0;
#X connect 19 0 20 0;
#X connect 20 0 25 1;
#X connect 21 0 22 0;
#X connect 22 0 23 0;
#X connect 23 0 24 0;
#X connect 24 0 25 0;
#X connect 25 0 28 1;
#X connect 26 0 19 0;
#X connect 26 0 21 0;
#X connect 27 0 26 0;
#X connect 28 0 7 1;
#X connect 29 0 30 0;
#X connect 30 0 6 1;
#X connect 31 0 30 1;
#X connect 32 0 29 1;
#X connect 33 0 34 0;
#X connect 34 0 35 0;
#X connect 35 0 36 0;
#X connect 36 0 37 0;
#X connect 37 0 10 0;
