#N canvas 86 141 450 300 10;
#X floatatom 157 28 5 0 0 0 interval - -;
#X obj 157 55 expr pow(2 \, $f1/12);
#X floatatom 157 83 5 0 0 0 - - -;
#X obj 157 110 *;
#X floatatom 210 94 5 0 0 0 - - -;
#X obj 157 138 osc~;
#X obj 157 166 *~ 0.1;
#X obj 157 194 dac~;
#X obj 208 138 osc~ 440;
#X obj 208 166 *~ 0.1;
#X connect 0 0 1 0;
#X connect 1 0 2 0;
#X connect 2 0 3 0;
#X connect 3 0 5 0;
#X connect 4 0 3 1;
#X connect 5 0 6 0;
#X connect 6 0 7 0;
#X connect 6 0 7 1;
#X connect 8 0 9 0;
#X connect 9 0 7 0;
#X connect 9 0 7 1;
