#N canvas 2 22 825 754 10;
#X obj 370 34 key;
#X obj 370 62 sel 49 50 51 52 53 54;
#X msg 370 100 1000;
#X msg 413 100 750;
#X msg 450 100 500;
#X msg 487 100 375;
#X msg 524 100 250;
#X msg 561 100 125;
#X obj 319 148 metro 500;
#X obj 286 34 tgl 15 0 empty empty empty 17 7 0 10 -262144 -1 -1 0
1;
#X obj 319 186 bng 15 250 50 0 empty empty empty 17 7 0 10 -262144
-1 -1;
#X obj 172 242 delay 2;
#X obj 319 242 delay 2;
#X obj 466 242 delay 2;
#X msg 466 290 0 20;
#X msg 407 242 0.9 2;
#X msg 319 290 0 200;
#X msg 260 242 0.9 2;
#X msg 172 290 40 50;
#X msg 83 242 200 2;
#X obj 172 338 line~;
#X obj 290 338 line~;
#X obj 466 338 line~;
#X obj 407 366 noise~;
#X obj 451 406 *~;
#X obj 527 408 hsl 128 15 0 127 0 0 empty empty noise_volume -2 -8
0 10 -262144 -1 -1 400 1;
#X floatatom 524 444 5 0 0 0 - - -;
#X obj 451 444 *~;
#X obj 451 502 bp~ 1000 5;
#X obj 172 406 osc~ 450;
#X obj 275 504 *~;
#X obj 347 580 +~;
#X obj 347 618 hip~ 5;
#X obj 347 656 dac~;
#X connect 0 0 1 0;
#X connect 1 0 2 0;
#X connect 1 1 3 0;
#X connect 1 2 4 0;
#X connect 1 3 5 0;
#X connect 1 4 6 0;
#X connect 1 5 7 0;
#X connect 2 0 8 1;
#X connect 3 0 8 1;
#X connect 4 0 8 1;
#X connect 5 0 8 1;
#X connect 6 0 8 1;
#X connect 7 0 8 1;
#X connect 8 0 10 0;
#X connect 9 0 8 0;
#X connect 10 0 19 0;
#X connect 10 0 11 0;
#X connect 10 0 12 0;
#X connect 10 0 17 0;
#X connect 10 0 15 0;
#X connect 10 0 13 0;
#X connect 11 0 18 0;
#X connect 12 0 16 0;
#X connect 13 0 14 0;
#X connect 14 0 22 0;
#X connect 15 0 22 0;
#X connect 16 0 21 0;
#X connect 17 0 21 0;
#X connect 18 0 20 0;
#X connect 19 0 20 0;
#X connect 20 0 29 0;
#X connect 21 0 30 1;
#X connect 22 0 24 1;
#X connect 23 0 24 0;
#X connect 24 0 27 0;
#X connect 25 0 27 1;
#X connect 25 0 26 0;
#X connect 27 0 28 0;
#X connect 28 0 31 0;
#X connect 29 0 30 0;
#X connect 30 0 31 0;
#X connect 31 0 32 0;
#X connect 32 0 33 0;
#X connect 32 0 33 1;
