#N canvas 0 22 905 527 12;
#N canvas 0 22 450 278 (subpatch) 0;
#X array sample 44100 float 2;
#X coords 0 1 44100 -1 200 140 1 0 0;
#X restore 642 92 graph;
#X obj 650 273 loadbang;
#X obj 650 335 soundfiler;
#X obj 306 284 tabread~ sample;
#X obj 227 387 output~;
#X msg 650 304 read -resize guitar.wav sample;
#X obj 217 94 phasor~ 20;
#X floatatom 433 125 5 0 0 0 offset - -;
#X obj 306 255 +~;
#X obj 253 195 +~ 0.5;
#X obj 253 226 cos~;
#X obj 253 255 *~ 0.5;
#X obj 253 286 +~ 0.5;
#X obj 253 321 *~;
#X obj 76 135 +~ 0.5;
#X obj 76 173 wrap~;
#X obj 119 286 tabread~ sample;
#X obj 119 254 +~;
#X obj 24 205 +~ 0.5;
#X obj 24 236 cos~;
#X obj 24 268 *~ 0.5;
#X obj 24 299 +~ 0.5;
#X obj 101 321 *~;
#X obj 462 202 line~;
#X msg 496 83 0 \, 44100 1000;
#X obj 372 243 samphold~;
#X obj 160 244 samphold~;
#X msg 501 109 0 \, 44100 500;
#X msg 506 135 0 \, 44100 2000;
#X msg 511 161 0 \, 44100 10000;
#X floatatom 217 46 5 0 0 0 freq - -;
#X obj 324 148 samphold~;
#X obj 148 178 samphold~;
#X obj 306 195 *~;
#X obj 76 205 *~;
#X floatatom 369 28 5 0 0 0 pitch - -;
#X obj 369 58 t b f;
#X obj 324 94 expr 44100 / $f1 * $f2;
#X connect 1 0 5 0;
#X connect 3 0 13 1;
#X connect 5 0 2 0;
#X connect 6 0 9 0;
#X connect 6 0 14 0;
#X connect 6 0 25 1;
#X connect 6 0 33 0;
#X connect 6 0 31 1;
#X connect 7 0 23 0;
#X connect 8 0 3 0;
#X connect 9 0 10 0;
#X connect 10 0 11 0;
#X connect 11 0 12 0;
#X connect 12 0 13 0;
#X connect 13 0 4 0;
#X connect 13 0 4 1;
#X connect 14 0 15 0;
#X connect 15 0 18 0;
#X connect 15 0 26 1;
#X connect 15 0 34 0;
#X connect 15 0 32 1;
#X connect 16 0 22 1;
#X connect 17 0 16 0;
#X connect 18 0 19 0;
#X connect 19 0 20 0;
#X connect 20 0 21 0;
#X connect 21 0 22 0;
#X connect 22 0 4 0;
#X connect 22 0 4 1;
#X connect 23 0 25 0;
#X connect 23 0 26 0;
#X connect 24 0 23 0;
#X connect 25 0 8 1;
#X connect 26 0 17 1;
#X connect 27 0 23 0;
#X connect 28 0 23 0;
#X connect 29 0 23 0;
#X connect 30 0 6 0;
#X connect 30 0 37 0;
#X connect 31 0 33 1;
#X connect 32 0 34 1;
#X connect 33 0 8 0;
#X connect 34 0 17 0;
#X connect 35 0 36 0;
#X connect 36 0 37 0;
#X connect 36 1 37 1;
#X connect 37 0 31 0;
#X connect 37 0 32 0;
