#N canvas 1 22 582 756 10;
#X obj 163 547 dac~;
#X obj 163 418 osc~ 440;
#X obj 163 500 *~;
#X obj 362 348 bng 15 250 50 0 empty empty empty 17 7 0 10 -262144
-1 -1;
#X obj 296 382 delay 100;
#X msg 296 416 0 10;
#X msg 362 417 0.5 10;
#X obj 296 456 line~;
#X obj 362 319 metro 1000;
#X obj 362 282 tgl 15 0 empty empty empty 17 7 0 10 -262144 -1 -1 0
1;
#X floatatom 416 139 5 0 0 0 BPM - -;
#X obj 419 250 /;
#X floatatom 419 281 5 0 0 0 - - -;
#X msg 389 210 60000;
#X obj 416 169 t b f;
#X floatatom 454 210 5 0 0 0 - - -;
#X obj 220 104 bng 15 250 50 0 empty empty empty 17 7 0 10 -262144
-1 -1;
#X obj 220 144 f 0;
#X obj 220 182 + 1;
#X obj 220 262 sel 4;
#X msg 220 314 0;
#X floatatom 220 224 5 0 0 0 - - -;
#X msg 142 370 880;
#X msg 175 370 440;
#X obj 142 263 sel 1;
#X obj 175 320 t b;
#X floatatom 296 306 5 0 0 0 - - -;
#X text 389 138;
#X connect 1 0 2 0;
#X connect 2 0 0 0;
#X connect 2 0 0 1;
#X connect 3 0 4 0;
#X connect 3 0 6 0;
#X connect 3 0 16 0;
#X connect 4 0 5 0;
#X connect 5 0 7 0;
#X connect 6 0 7 0;
#X connect 7 0 2 1;
#X connect 8 0 3 0;
#X connect 9 0 8 0;
#X connect 10 0 14 0;
#X connect 11 0 12 0;
#X connect 12 0 8 1;
#X connect 13 0 11 0;
#X connect 14 0 13 0;
#X connect 14 1 15 0;
#X connect 15 0 11 1;
#X connect 16 0 17 0;
#X connect 17 0 18 0;
#X connect 18 0 21 0;
#X connect 19 0 20 0;
#X connect 19 1 26 0;
#X connect 20 0 26 0;
#X connect 21 0 19 0;
#X connect 21 0 24 0;
#X connect 22 0 1 0;
#X connect 23 0 1 0;
#X connect 24 0 22 0;
#X connect 24 1 25 0;
#X connect 25 0 23 0;
#X connect 26 0 17 1;
