#N canvas 168 22 1066 724 10;
#X floatatom 340 85 5 0 0 0 freq - -;
#X obj 340 138 phasor~ 20;
#X obj 340 236 +~ 0.5;
#X obj 340 264 cos~;
#X obj 340 332 *~ 0.5;
#X obj 340 360 +~ 0.5;
#X obj 340 388 *~;
#X obj 216 484 dac~;
#X obj 145 183 +~ 0.5;
#X obj 145 211 wrap~;
#X obj 145 306 *~;
#X obj 145 334 +~;
#X obj 145 362 tabread~ sample;
#X obj 56 256 +~ 0.5;
#X obj 56 284 cos~;
#X obj 56 312 *~ 0.5;
#X obj 56 340 +~ 0.5;
#X obj 130 408 *~;
#X obj 183 317 samphold~;
#X obj 245 256 samphold~;
#X floatatom 476 85 5 0 0 0 pitch - -;
#X obj 476 112 t b f;
#X obj 476 150 expr 44100 / $f1 * $f2;
#X obj 476 191 samphold~;
#X obj 461 292 *~;
#X obj 461 320 +~;
#X obj 525 303 samphold~;
#X obj 461 348 tabread~ sample;
#X obj 633 150 noise~;
#X obj 633 205 *~;
#X obj 633 233 +~;
#X floatatom 687 178 5 0 0 2 range - -;
#X obj 778 216 line~;
#X floatatom 738 178 5 0 0 2 offset - -;
#X msg 826 48 0 \, 44100 1000;
#X msg 845 76 0 \, 44100 500;
#X msg 865 104 0 \, 44100 2000;
#X msg 888 132 0 \, 44100 10000;
#X obj 702 319 loadbang;
#X msg 702 347 read -resize guitar.wav sample;
#X obj 702 375 soundfiler;
#N canvas 0 22 450 278 (subpatch) 0;
#X array sample 44100 float 2;
#X coords 0 1 44100 -1 200 140 1;
#X restore 702 444 graph;
#X connect 0 0 1 0;
#X connect 0 0 22 0;
#X connect 1 0 2 0;
#X connect 1 0 24 0;
#X connect 1 0 23 1;
#X connect 1 0 26 1;
#X connect 2 0 3 0;
#X connect 3 0 4 0;
#X connect 4 0 5 0;
#X connect 5 0 6 0;
#X connect 6 0 7 0;
#X connect 6 0 7 1;
#X connect 8 0 9 0;
#X connect 9 0 10 0;
#X connect 9 0 18 1;
#X connect 9 0 19 1;
#X connect 10 0 11 0;
#X connect 11 0 12 0;
#X connect 12 0 17 1;
#X connect 13 0 14 0;
#X connect 14 0 15 0;
#X connect 15 0 16 0;
#X connect 16 0 17 0;
#X connect 17 0 7 0;
#X connect 17 0 7 1;
#X connect 18 0 11 1;
#X connect 19 0 10 1;
#X connect 20 0 21 0;
#X connect 21 0 22 0;
#X connect 21 1 22 1;
#X connect 22 0 23 0;
#X connect 23 0 24 1;
#X connect 24 0 25 0;
#X connect 25 0 27 0;
#X connect 26 0 25 1;
#X connect 27 0 6 1;
#X connect 28 0 29 0;
#X connect 29 0 30 0;
#X connect 30 0 18 0;
#X connect 30 0 26 0;
#X connect 31 0 29 1;
#X connect 32 0 30 1;
#X connect 33 0 32 0;
#X connect 34 0 32 0;
#X connect 35 0 32 0;
#X connect 36 0 32 0;
#X connect 37 0 32 0;
#X connect 38 0 39 0;
#X connect 39 0 40 0;
