#N canvas 210 129 647 568 10;
#X obj 174 43 keyname;
#X obj 293 60 sel z s x d c v g b h n j m;
#X msg 293 88 60;
#X msg 319 88 62;
#X msg 346 88 64;
#X msg 372 88 66;
#X msg 399 88 68;
#X msg 425 88 70;
#X msg 306 117 61;
#X msg 332 117 63;
#X msg 359 117 65;
#X msg 385 117 67;
#X msg 412 117 69;
#X msg 438 117 71;
#X obj 174 66 tgl 15 0 empty empty empty 17 7 0 10 -262144 -1 -1 1
1;
#X obj 174 87 * 100;
#X obj 174 130 pack 0 0;
#X obj 174 168 swap;
#X floatatom 377 225 5 0 0 0 velocity - -;
#X obj 362 436 *~;
#X obj 362 474 dac~;
#X obj 377 252 / 127;
#X obj 377 280 pack 0 5;
#X obj 377 308 line~;
#X floatatom 174 196 5 0 0 0 note - -;
#X obj 174 224 mtof;
#X floatatom 174 252 5 0 0 0 - - -;
#X obj 174 279 line~;
#X obj 125 335 osc~;
#X obj 174 335 osc~;
#X obj 174 307 expr~ $v1 * pow(2 \, $f2);
#X floatatom 309 280 5 0 0 0 octave_shift - -;
#X obj 159 363 +~;
#X connect 0 0 14 0;
#X connect 0 1 1 0;
#X connect 1 0 2 0;
#X connect 1 1 8 0;
#X connect 1 2 3 0;
#X connect 1 3 9 0;
#X connect 1 4 4 0;
#X connect 1 5 10 0;
#X connect 1 6 5 0;
#X connect 1 7 11 0;
#X connect 1 8 6 0;
#X connect 1 9 12 0;
#X connect 1 10 7 0;
#X connect 1 11 13 0;
#X connect 2 0 16 1;
#X connect 3 0 16 1;
#X connect 4 0 16 1;
#X connect 5 0 16 1;
#X connect 6 0 16 1;
#X connect 7 0 16 1;
#X connect 8 0 16 1;
#X connect 9 0 16 1;
#X connect 10 0 16 1;
#X connect 11 0 16 1;
#X connect 12 0 16 1;
#X connect 13 0 16 1;
#X connect 14 0 15 0;
#X connect 15 0 16 0;
#X connect 16 0 17 0;
#X connect 17 0 24 0;
#X connect 17 1 18 0;
#X connect 18 0 21 0;
#X connect 19 0 20 0;
#X connect 19 0 20 1;
#X connect 21 0 22 0;
#X connect 22 0 23 0;
#X connect 23 0 19 1;
#X connect 24 0 25 0;
#X connect 25 0 26 0;
#X connect 26 0 27 0;
#X connect 27 0 30 0;
#X connect 27 0 28 0;
#X connect 28 0 32 0;
#X connect 29 0 32 1;
#X connect 30 0 29 0;
#X connect 31 0 30 1;
#X connect 32 0 19 0;
