#N canvas 4 22 485 709 10;
#X msg 77 293 devices;
#X obj 160 385 arduino;
#X floatatom 160 219 5 0 0 0 - - -;
#X obj 160 256 t f b;
#X msg 160 293 open \$1;
#X msg 219 293 close;
#X msg 292 334 close;
#X msg 292 293 analogIns 1 1;
#X obj 160 426 route analog;
#X obj 160 463 route 0 1 2 3 4 5 6 7;
#X floatatom 175 502 5 0 0 0 - - -;
#X connect 0 0 1 0;
#X connect 1 0 8 0;
#X connect 2 0 3 0;
#X connect 3 0 4 0;
#X connect 3 1 5 0;
#X connect 4 0 1 0;
#X connect 5 0 1 0;
#X connect 6 0 1 0;
#X connect 7 0 1 0;
#X connect 8 0 9 0;
#X connect 9 1 10 0;
