#N canvas 0 22 640 367 12;
#N canvas 0 22 450 278 (subpatch) 0;
#X array snare 6276 float 2;
#X coords 0 1 6276 -1 200 140 1;
#X restore 359 54 graph;
#X obj 359 225 loadbang;
#X msg 359 261 read -resize snare.wav snare;
#X obj 359 297 soundfiler;
#X obj 38 171 bng 15 250 50 0 empty empty empty 17 7 0 10 -262144 -1
-1;
#X obj 38 202 tabplay~ snare;
#X obj 38 273 *~ 0.5;
#X floatatom 103 238 5 0 0 0 - - -;
#X obj 38 309 dac~;
#X obj 38 104 tgl 15 0 empty empty empty 17 7 0 10 -262144 -1 -1 0
1;
#X obj 38 135 metro 100;
#X floatatom 179 45 5 0 0 0 BPM - -;
#X floatatom 179 116 5 0 0 0 - - -;
#X obj 179 80 expr 60000 / $f1 / 4;
#X connect 1 0 2 0;
#X connect 2 0 3 0;
#X connect 4 0 5 0;
#X connect 5 0 6 0;
#X connect 6 0 8 0;
#X connect 6 0 8 1;
#X connect 7 0 6 1;
#X connect 9 0 10 0;
#X connect 10 0 4 0;
#X connect 11 0 13 0;
#X connect 12 0 10 1;
#X connect 13 0 12 0;
