#N canvas 0 22 640 367 12;
#N canvas 0 22 450 278 (subpatch) 0;
#X array sample1 6549 float 2;
#X coords 0 1 6549 -1 200 140 1;
#X restore 365 57 graph;
#X obj 66 152 soundfiler;
#X obj 124 203 bng 15 250 50 0 empty empty empty 17 7 0 10 -262144
-1 -1;
#X obj 66 254 tabplay~ sample1;
#X obj 66 290 dac~;
#X msg 160 203 85000;
#X msg 225 203 40000 44100;
#X obj 66 54 bng 15 250 50 0 empty empty empty 17 7 0 10 -262144 -1
-1;
#X obj 66 80 openpanel;
#X msg 66 111 read -resize \$1 sample1;
#X msg 66 203 stop;
#X connect 2 0 3 0;
#X connect 3 0 4 0;
#X connect 3 0 4 1;
#X connect 5 0 3 0;
#X connect 6 0 3 0;
#X connect 7 0 8 0;
#X connect 8 0 9 0;
#X connect 9 0 1 0;
#X connect 10 0 3 0;
