#N canvas 0 22 640 367 12;
#N canvas 0 22 450 278 (subpatch) 0;
#X array sample1 44100 float 2;
#X coords 0 1 44099 -1 200 140 1;
#X restore 403 79 graph;
#X obj 38 76 bng 15 250 50 0 empty empty empty 17 7 0 10 -262144 -1
-1;
#X obj 80 108 tabwrite~ sample1;
#X obj 38 161 bng 15 250 50 0 empty empty empty 17 7 0 10 -262144 -1
-1;
#X obj 86 189 tabplay~ sample1;
#X obj 86 230 dac~;
#X obj 80 67 adc~;
#X connect 1 0 2 0;
#X connect 3 0 4 0;
#X connect 4 0 5 0;
#X connect 4 0 5 1;
#X connect 6 0 2 0;
