#N canvas 555 29 586 691 10;
#X obj 52 12 notein;
#X floatatom 51 107 5 0 0 0 - - -;
#X obj 458 47 metro 500;
#X obj 458 -12 tgl 15 0 empty empty empty 17 7 0 10 -262144 -1 -1 1
1;
#X obj 18 181 mtof;
#X obj 25 637 dac~;
#X obj 26 395 *~ 0.5;
#X obj 299 254 delay 250;
#X floatatom 299 295 5 0 0 0 - - -;
#X floatatom 350 141 5 0 0 0 - - -;
#X msg 269 232 0.5;
#X obj 18 239 sig~;
#X obj 269 364 line;
#X obj 457 179 t b;
#X floatatom 490 110 5 0 0 0 - - -;
#X obj 466 302 *;
#X floatatom 466 339 5 0 0 0 - - -;
#X obj 528 268 + 1;
#X obj 51 73 stripnote;
#X obj 18 277 phasor~;
#X obj 488 229 random 5;
#X obj 78 255 sig~;
#X obj 78 277 phasor~;
#X obj 78 181 + 12;
#X obj 78 215 mtof;
#X obj 83 397 *~ 0.5;
#X obj 244 440 delay 250;
#X floatatom 244 481 5 0 0 0 - - -;
#X msg 214 418 0.5;
#X obj 214 550 line;
#X obj 267 400 t b;
#X obj 458 139 sel 1 2;
#X obj 458 79 random 5;
#X obj 492 184 t b;
#X obj 135 252 sig~;
#X obj 135 276 phasor~;
#X obj 135 214 mtof;
#X obj 140 396 *~ 0.5;
#X obj 135 180 + 24;
#X obj 353 430 delay 250;
#X floatatom 353 471 5 0 0 0 - - -;
#X msg 323 408 0.5;
#X obj 323 540 line;
#X obj 376 390 t b;
#X obj 142 17 bng 15 250 50 0 empty empty empty 17 7 0 10 -262144 -1
-1;
#X obj 199 133 * 2;
#X floatatom 219 94 5 0 0 0 - - -;
#X floatatom 199 177 5 0 0 0 - - -;
#X floatatom 237 177 5 0 0 0 - - -;
#X obj 446 228 bng 15 250 50 0 empty empty empty 17 7 0 10 -262144
-1 -1;
#X obj 404 463 bng 15 250 50 0 empty empty empty 17 7 0 10 -262144
-1 -1;
#X obj 284 466 bng 15 250 50 0 empty empty empty 17 7 0 10 -262144
-1 -1;
#X obj 237 135 * 4;
#X obj 112 335 *~;
#X obj 41 339 *~;
#X obj 350 177 / 0.5;
#X obj 62 364 *~;
#X obj 198 269 line;
#X obj 187 341 line;
#X msg 198 234 \$1 500;
#X msg 187 306 \$1 300;
#X obj 211 210 pack;
#X obj 231 324 pack;
#X obj 142 77 + 36;
#X obj 142 48 random 24;
#X msg 458 264 500;
#X msg 214 515 \$1 200;
#X msg 323 505 \$1 100;
#X msg 269 329 \$1 300;
#X connect 0 0 18 0;
#X connect 0 1 18 1;
#X connect 1 0 4 0;
#X connect 1 0 23 0;
#X connect 1 0 38 0;
#X connect 2 0 32 0;
#X connect 2 0 44 0;
#X connect 3 0 2 0;
#X connect 4 0 11 0;
#X connect 6 0 5 0;
#X connect 6 0 5 1;
#X connect 7 0 8 0;
#X connect 7 0 30 0;
#X connect 8 0 68 0;
#X connect 9 0 2 1;
#X connect 9 0 55 0;
#X connect 10 0 68 0;
#X connect 11 0 19 0;
#X connect 12 0 6 1;
#X connect 13 0 7 0;
#X connect 13 0 10 0;
#X connect 13 0 49 0;
#X connect 15 0 16 0;
#X connect 16 0 9 0;
#X connect 17 0 15 1;
#X connect 18 0 1 0;
#X connect 19 0 6 0;
#X connect 19 0 54 0;
#X connect 20 0 17 0;
#X connect 20 0 65 0;
#X connect 21 0 22 0;
#X connect 22 0 53 0;
#X connect 22 0 54 1;
#X connect 23 0 24 0;
#X connect 24 0 60 0;
#X connect 24 0 62 0;
#X connect 25 0 5 1;
#X connect 25 0 5 0;
#X connect 26 0 27 0;
#X connect 26 0 43 0;
#X connect 27 0 66 0;
#X connect 28 0 66 0;
#X connect 29 0 25 1;
#X connect 30 0 26 0;
#X connect 30 0 28 0;
#X connect 30 0 51 0;
#X connect 31 0 13 0;
#X connect 31 1 33 0;
#X connect 31 2 13 0;
#X connect 32 0 14 0;
#X connect 32 0 31 0;
#X connect 33 0 20 0;
#X connect 34 0 35 0;
#X connect 35 0 37 0;
#X connect 35 0 53 1;
#X connect 36 0 59 0;
#X connect 36 0 61 0;
#X connect 37 0 5 1;
#X connect 37 0 5 0;
#X connect 38 0 36 0;
#X connect 39 0 40 0;
#X connect 40 0 67 0;
#X connect 41 0 67 0;
#X connect 42 0 37 1;
#X connect 43 0 39 0;
#X connect 43 0 41 0;
#X connect 43 0 50 0;
#X connect 44 0 64 0;
#X connect 45 0 23 1;
#X connect 45 0 47 0;
#X connect 46 0 45 0;
#X connect 46 0 52 0;
#X connect 52 0 38 1;
#X connect 52 0 48 0;
#X connect 53 0 25 0;
#X connect 53 0 56 1;
#X connect 54 0 6 0;
#X connect 54 0 56 0;
#X connect 55 0 7 1;
#X connect 55 0 26 1;
#X connect 55 0 39 1;
#X connect 55 0 61 1;
#X connect 55 0 62 1;
#X connect 56 0 6 0;
#X connect 57 0 34 0;
#X connect 58 0 21 0;
#X connect 61 0 57 0;
#X connect 62 0 58 0;
#X connect 63 0 1 0;
#X connect 64 0 46 0;
#X connect 64 0 63 0;
#X connect 65 0 15 0;
#X connect 66 0 29 0;
#X connect 67 0 42 0;
#X connect 68 0 12 0;
