#N canvas 331 141 625 518 10;
#X obj 26 55 bng 15 250 50 0 empty empty empty 17 7 0 10 -262144 -1
-1;
#X obj 400 187 loadbang;
#X msg 400 215 read -resize guitar.wav guitar;
#X obj 400 245 soundfiler;
#X obj 26 78 tabplay~ guitar;
#X obj 105 179 +~;
#X obj 171 36 adc~;
#X obj 223 37 tgl 15 0 empty empty empty 17 7 0 10 -262144 -1 -1 0
1;
#X obj 171 78 *~;
#N canvas 0 22 450 278 (subpatch) 0;
#X array guitar 44100 float 2;
#X coords 0 1 44100 -1 200 140 1;
#X restore 400 28 graph;
#X obj 275 292 osc~ 5;
#X obj 209 477 dac~;
#X obj 25 214 delwrite~ deep_chorus 30;
#X obj 275 380 vd~ deep_chorus;
#X obj 385 390 vd~ deep_chorus;
#X obj 495 410 vd~ deep_chorus;
#X obj 209 412 +~;
#X obj 209 441 *~ 0.3;
#X obj 275 322 *~ 0.6;
#X obj 275 350 +~ 5;
#X obj 385 302 osc~ 1.4;
#X obj 385 332 *~ 1.1;
#X obj 385 360 +~ 5;
#X obj 495 322 osc~ 0.6;
#X obj 495 352 *~ 1.5;
#X obj 495 380 +~ 5;
#X connect 0 0 4 0;
#X connect 1 0 2 0;
#X connect 2 0 3 0;
#X connect 4 0 5 0;
#X connect 4 1 0 0;
#X connect 5 0 12 0;
#X connect 5 0 16 0;
#X connect 6 0 8 0;
#X connect 7 0 8 1;
#X connect 8 0 5 1;
#X connect 10 0 18 0;
#X connect 13 0 16 1;
#X connect 14 0 16 1;
#X connect 15 0 16 1;
#X connect 16 0 17 0;
#X connect 17 0 11 0;
#X connect 18 0 19 0;
#X connect 19 0 13 0;
#X connect 20 0 21 0;
#X connect 21 0 22 0;
#X connect 22 0 14 0;
#X connect 23 0 24 0;
#X connect 24 0 25 0;
#X connect 25 0 15 0;
