#N canvas 541 22 640 756 10;
#X msg 109 574 read -resize saw.wav saw \, read -resize square.wav
square \, read -resize triangle.wav triangle;
#X obj 109 628 soundfiler;
#X floatatom 194 156 5 0 0 0 note - -;
#X obj 70 212 tabosc4~ saw;
#X obj 187 212 tabosc4~ square;
#X obj 322 212 tabosc4~ triangle;
#X obj 70 270 *~;
#X floatatom 85 243 5 0 0 0 - - -;
#X obj 187 270 *~;
#X floatatom 202 243 5 0 0 0 - - -;
#X obj 322 270 *~;
#X floatatom 337 243 5 0 0 0 - - -;
#X obj 70 346 +~;
#X obj 70 534 dac~;
#X obj 70 308 +~;
#N canvas 0 22 450 278 (subpatch) 0;
#X array saw 515 float 2;
#X coords 0 1 515 -1 100 70 1 0 0;
#X restore 215 653 graph;
#N canvas 0 22 450 278 (subpatch) 0;
#X array square 515 float 2;
#X coords 0 1 515 -1 100 70 1 0 0;
#X restore 336 653 graph;
#N canvas 0 22 450 278 (subpatch) 0;
#X array triangle 515 float 2;
#X coords 0 1 515 -1 100 70 1 0 0;
#X restore 457 653 graph;
#X obj 70 496 *~;
#X floatatom 349 355 5 0 0 2 attack - -;
#X floatatom 402 355 5 0 0 2 decay - -;
#X floatatom 455 355 5 0 0 2 sustain - -;
#X floatatom 542 394 5 0 0 2 release - -;
#X obj 296 402 pack 1 0 0 0;
#X msg 296 430 \$1 \$2 \, \$4 \$3 \$2;
#X obj 497 441 pack 0 0;
#X obj 296 479 vline~;
#X obj 497 255 moses 1;
#X obj 296 317 / 127;
#X obj 194 13 keyname;
#X obj 313 30 sel z s x d c v g b h n j m;
#X msg 313 58 60;
#X msg 339 58 62;
#X msg 366 58 64;
#X msg 392 58 66;
#X msg 419 58 68;
#X msg 445 58 70;
#X msg 326 87 61;
#X msg 352 87 63;
#X msg 379 87 65;
#X msg 405 87 67;
#X msg 432 87 69;
#X msg 458 87 71;
#X obj 194 36 tgl 15 0 empty empty empty 17 7 0 10 -262144 -1 -1 1
1;
#X obj 194 57 * 100;
#X obj 194 100 pack 0 0;
#X obj 194 123 swap;
#X floatatom 497 156 5 0 0 0 velocity - -;
#X obj 194 176 mtof;
#X connect 0 0 1 0;
#X connect 2 0 48 0;
#X connect 3 0 6 0;
#X connect 4 0 8 0;
#X connect 5 0 10 0;
#X connect 6 0 14 0;
#X connect 7 0 6 1;
#X connect 8 0 14 1;
#X connect 9 0 8 1;
#X connect 10 0 12 1;
#X connect 11 0 10 1;
#X connect 12 0 18 0;
#X connect 14 0 12 0;
#X connect 18 0 13 0;
#X connect 18 0 13 1;
#X connect 19 0 23 1;
#X connect 20 0 23 2;
#X connect 21 0 23 3;
#X connect 22 0 25 1;
#X connect 23 0 24 0;
#X connect 24 0 26 0;
#X connect 25 0 26 0;
#X connect 26 0 18 1;
#X connect 27 0 25 0;
#X connect 27 1 28 0;
#X connect 28 0 23 0;
#X connect 29 0 43 0;
#X connect 29 1 30 0;
#X connect 30 0 31 0;
#X connect 30 1 37 0;
#X connect 30 2 32 0;
#X connect 30 3 38 0;
#X connect 30 4 33 0;
#X connect 30 5 39 0;
#X connect 30 6 34 0;
#X connect 30 7 40 0;
#X connect 30 8 35 0;
#X connect 30 9 41 0;
#X connect 30 10 36 0;
#X connect 30 11 42 0;
#X connect 31 0 45 1;
#X connect 32 0 45 1;
#X connect 33 0 45 1;
#X connect 34 0 45 1;
#X connect 35 0 45 1;
#X connect 36 0 45 1;
#X connect 37 0 45 1;
#X connect 38 0 45 1;
#X connect 39 0 45 1;
#X connect 40 0 45 1;
#X connect 41 0 45 1;
#X connect 42 0 45 1;
#X connect 43 0 44 0;
#X connect 44 0 45 0;
#X connect 45 0 46 0;
#X connect 46 0 2 0;
#X connect 46 1 47 0;
#X connect 47 0 27 0;
#X connect 48 0 3 0;
#X connect 48 0 4 0;
#X connect 48 0 5 0;
