#N canvas 0 22 640 367 10;
#X obj 67 53 bng 15 250 50 0 empty empty empty 17 7 0 10 -262144 -1
-1;
#X obj 67 79 tabplay~ riff;
#X obj 67 137 +~;
#X obj 141 328 dac~;
#X obj 167 41 adc~;
#X obj 167 79 *~;
#X obj 214 64 tgl 15 0 empty empty empty 17 7 0 10 -262144 -1 -1 0
1;
#X obj 381 215 loadbang;
#X msg 381 243 read -resize riff.wav riff;
#X obj 381 271 soundfiler;
#N canvas 0 22 450 278 (subpatch) 0;
#X array riff 110471 float 2;
#X coords 0 1 110471 -1 200 140 1;
#X restore 381 54 graph;
#X obj 94 222 *~ 1;
#X floatatom 115 185 5 0 0 2 gain - -;
#X msg 188 207 \$1 10;
#X obj 188 235 line~;
#X obj 141 280 vcf~;
#X floatatom 190 280 5 0 0 2 Q - -;
#X obj 284 47 vsl 15 128 0 127 0 0 empty empty empty 0 -9 0 10 -262144
-1 -1 6300 1;
#X obj 284 198 * 15;
#X obj 284 226 + 100;
#X connect 0 0 1 0;
#X connect 1 0 2 0;
#X connect 1 1 0 0;
#X connect 2 0 11 0;
#X connect 4 0 5 0;
#X connect 5 0 2 1;
#X connect 6 0 5 1;
#X connect 7 0 8 0;
#X connect 8 0 9 0;
#X connect 11 0 15 0;
#X connect 12 0 11 1;
#X connect 13 0 14 0;
#X connect 14 0 15 1;
#X connect 15 0 3 0;
#X connect 15 0 3 1;
#X connect 16 0 15 2;
#X connect 17 0 18 0;
#X connect 18 0 19 0;
#X connect 19 0 13 0;
