#N canvas 21 40 737 639 10;
#N canvas 88 357 618 383 arduinoInput 1;
#X obj 18 19 inlet;
#X obj 205 19 inlet;
#X floatatom 205 45 5 0 0 0 - - -;
#X obj 205 70 t f b;
#X msg 205 96 open \$1;
#X msg 269 96 close;
#X obj 205 207 arduino 2;
#X obj 205 233 route analog;
#X obj 205 259 route 0 1 2 3 4 5;
#X obj 205 295 outlet;
#X obj 255 295 outlet;
#X obj 305 295 outlet;
#X obj 355 295 outlet;
#X obj 405 295 outlet;
#X obj 455 295 outlet;
#X msg 18 50 analogIns 0 1;
#X msg 28 74 analogIns 1 1;
#X msg 38 98 analogIns 2 1;
#X msg 48 122 analogIns 3 1;
#X msg 58 146 analogIns 4 1;
#X msg 68 170 analogIns 5 1;
#X connect 0 0 15 0;
#X connect 0 0 16 0;
#X connect 0 0 17 0;
#X connect 0 0 18 0;
#X connect 0 0 19 0;
#X connect 0 0 20 0;
#X connect 1 0 2 0;
#X connect 2 0 3 0;
#X connect 3 0 4 0;
#X connect 3 1 5 0;
#X connect 4 0 6 0;
#X connect 5 0 6 0;
#X connect 6 0 7 0;
#X connect 7 0 8 0;
#X connect 8 0 9 0;
#X connect 8 1 10 0;
#X connect 8 2 11 0;
#X connect 8 3 12 0;
#X connect 8 4 13 0;
#X connect 8 5 14 0;
#X connect 15 0 6 0;
#X connect 16 0 6 0;
#X connect 17 0 6 0;
#X connect 18 0 6 0;
#X connect 19 0 6 0;
#X connect 20 0 6 0;
#X restore 142 53 pd arduinoInput;
#X obj 136 342 *~;
#X obj 136 470 output~;
#X obj 346 342 *~;
#X obj 456 342 *~;
#X obj 566 342 *~;
#X obj 142 100 tgl 15 0 empty empty empty 17 7 0 10 -262144 -1 -1 0
0.999022;
#X obj 168 100 tgl 15 0 empty empty empty 17 7 0 10 -262144 -1 -1 0
1;
#X obj 194 100 tgl 15 0 empty empty empty 17 7 0 10 -262144 -1 -1 0
0.997067;
#X obj 220 100 tgl 15 0 empty empty empty 17 7 0 10 -262144 -1 -1 0
1;
#X obj 142 27 bng 15 250 50 0 empty empty empty 17 7 0 10 -262144 -1
-1;
#X floatatom 229 26 5 0 0 0 - - -;
#X obj 566 304 osc~ 493.8;
#X obj 136 304 osc~ 261.6;
#X obj 346 304 osc~ 329.6;
#X obj 456 304 osc~ 391.9;
#X obj 193 334 tgl 15 0 empty empty empty 17 7 0 10 -262144 -1 -1 0
1;
#X floatatom 142 160 5 0 0 0 - - -;
#X floatatom 205 160 5 0 0 0 - - -;
#X floatatom 275 160 5 0 0 0 - - -;
#X floatatom 345 160 5 0 0 0 - - -;
#X obj 228 293 random 12;
#X obj 228 321 + 60;
#X obj 228 349 mtof;
#X obj 228 377 osc~;
#X obj 228 405 hip~ 5;
#X connect 0 0 6 0;
#X connect 0 1 7 0;
#X connect 0 2 8 0;
#X connect 0 3 9 0;
#X connect 1 0 2 0;
#X connect 1 0 2 1;
#X connect 6 0 17 0;
#X connect 7 0 18 0;
#X connect 8 0 19 0;
#X connect 9 0 20 0;
#X connect 10 0 0 0;
#X connect 11 0 0 1;
#X connect 12 0 5 0;
#X connect 13 0 1 0;
#X connect 14 0 3 0;
#X connect 15 0 4 0;
#X connect 16 0 1 1;
#X connect 17 0 21 0;
#X connect 18 0 3 1;
#X connect 19 0 4 1;
#X connect 20 0 5 1;
#X connect 21 0 22 0;
#X connect 22 0 23 0;
#X connect 23 0 24 0;
#X connect 24 0 25 0;
#X connect 25 0 2 0;
#X connect 25 0 2 1;
