#N canvas 214 22 648 607 10;
#N canvas 46 370 618 383 arduinoInput 1;
#X obj 18 19 inlet;
#X obj 205 19 inlet;
#X floatatom 205 45 5 0 0 0 - - -;
#X obj 205 70 t f b;
#X msg 205 96 open \$1;
#X msg 269 96 close;
#X obj 205 207 arduino 2;
#X obj 205 233 route analog;
#X obj 205 259 route 0 1 2 3 4 5;
#X obj 205 295 outlet;
#X obj 255 295 outlet;
#X obj 305 295 outlet;
#X obj 355 295 outlet;
#X obj 405 295 outlet;
#X obj 455 295 outlet;
#X msg 18 50 analogIns 0 1;
#X msg 28 74 analogIns 1 1;
#X msg 38 98 analogIns 2 1;
#X msg 48 122 analogIns 3 1;
#X msg 58 146 analogIns 4 1;
#X msg 68 170 analogIns 5 1;
#X connect 0 0 15 0;
#X connect 0 0 16 0;
#X connect 0 0 17 0;
#X connect 0 0 18 0;
#X connect 0 0 19 0;
#X connect 0 0 20 0;
#X connect 1 0 2 0;
#X connect 2 0 3 0;
#X connect 3 0 4 0;
#X connect 3 1 5 0;
#X connect 4 0 6 0;
#X connect 5 0 6 0;
#X connect 6 0 7 0;
#X connect 7 0 8 0;
#X connect 8 0 9 0;
#X connect 8 1 10 0;
#X connect 8 2 11 0;
#X connect 8 3 12 0;
#X connect 8 4 13 0;
#X connect 8 5 14 0;
#X connect 15 0 6 0;
#X connect 16 0 6 0;
#X connect 17 0 6 0;
#X connect 18 0 6 0;
#X connect 19 0 6 0;
#X connect 20 0 6 0;
#X restore 142 53 pd arduinoInput;
#X obj 86 372 *~;
#X obj 86 470 output~;
#X obj 296 372 *~;
#X obj 406 372 *~;
#X obj 516 372 *~;
#X obj 142 100 tgl 15 0 empty empty empty 17 7 0 10 -262144 -1 -1 0
0.99609;
#X obj 185 100 tgl 15 0 empty empty empty 17 7 0 10 -262144 -1 -1 0
0.994135;
#X obj 228 100 tgl 15 0 empty empty empty 17 7 0 10 -262144 -1 -1 0
0.995112;
#X obj 271 100 tgl 15 0 empty empty empty 17 7 0 10 -262144 -1 -1 0
1;
#X obj 142 27 bng 15 250 50 0 empty empty empty 17 7 0 10 -262144 -1
-1;
#X floatatom 229 26 5 0 0 0 - - -;
#X obj 516 334 osc~ 493.8;
#X obj 86 334 osc~ 261.6;
#X obj 296 334 osc~ 329.6;
#X obj 406 334 osc~ 391.9;
#X obj 143 364 tgl 15 0 empty empty empty 17 7 0 10 -262144 -1 -1 0
1;
#X obj 196 372 *~;
#X obj 196 334 osc~ 523.2;
#X floatatom 142 131 5 0 0 0 - - -;
#X floatatom 185 131 5 0 0 0 - - -;
#X floatatom 228 131 5 0 0 0 - - -;
#X floatatom 271 131 5 0 0 0 - - -;
#X obj 26 176 expr~ if( $v2 + $v3 + $v4 ==0 \, 1 \, 0 ) \;;
#X obj 106 204 expr~ if( $v2 + $v3 + $v4 ==0 \, 1 \, 0 ) \;;
#X obj 306 232 expr~ if( $v2 + $v3 + $v4 ==0 \, 1 \, 0 ) \;;
#X obj 406 260 expr~ if( $v2 + $v3 + $v4 ==0 \, 1 \, 0 ) \;;
#X connect 0 0 6 0;
#X connect 0 1 7 0;
#X connect 0 2 8 0;
#X connect 0 3 9 0;
#X connect 1 0 2 0;
#X connect 1 0 2 1;
#X connect 3 0 2 0;
#X connect 3 0 2 1;
#X connect 4 0 2 0;
#X connect 4 0 2 1;
#X connect 5 0 2 0;
#X connect 5 0 2 1;
#X connect 6 0 19 0;
#X connect 7 0 20 0;
#X connect 8 0 21 0;
#X connect 9 0 22 0;
#X connect 10 0 0 0;
#X connect 11 0 0 1;
#X connect 12 0 5 0;
#X connect 13 0 1 0;
#X connect 14 0 3 0;
#X connect 15 0 4 0;
#X connect 16 0 1 1;
#X connect 17 0 2 0;
#X connect 17 0 2 1;
#X connect 18 0 17 0;
#X connect 19 0 23 0;
#X connect 19 0 24 1;
#X connect 19 0 25 1;
#X connect 19 0 26 1;
#X connect 20 0 23 1;
#X connect 20 0 24 0;
#X connect 20 0 25 2;
#X connect 20 0 26 2;
#X connect 21 0 23 2;
#X connect 21 0 24 2;
#X connect 21 0 25 0;
#X connect 21 0 26 3;
#X connect 22 0 23 3;
#X connect 22 0 24 3;
#X connect 22 0 25 3;
#X connect 22 0 26 0;
#X connect 23 0 17 1;
#X connect 24 0 3 1;
#X connect 25 0 4 1;
#X connect 26 0 5 1;
